<?xml version="1.0" standalone="no"?>
<!DOCTYPE svg PUBLIC "-//W3C//DTD SVG 20010904//EN"
 "http://www.w3.org/TR/2001/REC-SVG-20010904/DTD/svg10.dtd">
<svg version="1.0" xmlns="http://www.w3.org/2000/svg"
 width="104.000000pt" height="75.000000pt" viewBox="0 0 104.000000 75.000000"
 preserveAspectRatio="xMidYMid meet">

<g transform="translate(0.000000,75.000000) scale(0.100000,-0.100000)"
fill="#000000" stroke="none">
<path d="M177 703 c-10 -3 -29 -28 -42 -56 -20 -41 -23 -54 -13 -63 7 -7 89
-75 183 -153 149 -123 175 -141 215 -147 25 -3 62 -17 84 -31 38 -25 39 -29
25 -82 -2 -8 32 -45 79 -86 l83 -72 34 31 c19 17 52 46 74 65 50 41 121 145
121 177 0 16 -14 32 -48 55 -26 18 -93 79 -150 135 l-103 103 -41 -15 c-86
-30 -183 -7 -324 75 -73 44 -138 73 -153 70 -3 -1 -14 -3 -24 -6z"/>
<path d="M46 506 l-26 -35 152 -126 152 -127 28 31 c15 17 28 35 28 40 0 5
-17 23 -37 40 -21 18 -44 37 -52 44 -77 64 -207 167 -212 167 -4 0 -18 -15
-33 -34z"/>
</g>
</svg>
