<?xml version="1.0" standalone="no"?>
<!DOCTYPE svg PUBLIC "-//W3C//DTD SVG 20010904//EN"
 "http://www.w3.org/TR/2001/REC-SVG-20010904/DTD/svg10.dtd">
<svg version="1.0" xmlns="http://www.w3.org/2000/svg"
 width="101.000000pt" height="55.000000pt" viewBox="0 0 101.000000 55.000000"
 preserveAspectRatio="xMidYMid meet">

<g transform="translate(0.000000,55.000000) scale(0.100000,-0.100000)"
fill="#000000" stroke="none">
<path d="M46 478 c-13 -18 -16 -58 -16 -221 0 -115 5 -207 11 -218 7 -15 21
-19 57 -19 27 0 53 5 60 12 8 8 12 45 12 100 l0 88 50 0 c30 0 61 7 76 16 l25
17 -22 23 c-18 19 -33 24 -76 24 l-53 0 0 90 c0 78 -2 91 -19 100 -35 18 -88
12 -105 -12z"/>
<path d="M868 489 c-15 -8 -18 -25 -18 -99 l0 -90 -53 0 c-43 0 -58 -5 -76
-24 l-22 -23 25 -17 c15 -9 46 -16 76 -16 l50 0 0 -88 c0 -55 4 -92 12 -100 7
-7 33 -12 60 -12 36 0 50 4 57 19 6 11 11 103 11 218 -1 229 -5 243 -68 243
-20 0 -45 -5 -54 -11z"/>
<path d="M372 397 l-21 -23 56 -58 56 -58 -59 -59 -58 -59 24 -25 24 -25 58
57 58 57 60 -59 c58 -58 60 -58 80 -40 11 10 20 23 20 29 0 7 -25 36 -55 66
l-55 54 55 56 c30 31 55 60 55 66 0 6 -9 19 -20 29 -20 18 -22 18 -79 -39
l-58 -57 -57 55 c-31 31 -58 56 -60 56 -1 0 -12 -10 -24 -23z"/>
</g>
</svg>
