<?xml version="1.0" standalone="no"?>
<!DOCTYPE svg PUBLIC "-//W3C//DTD SVG 20010904//EN"
 "http://www.w3.org/TR/2001/REC-SVG-20010904/DTD/svg10.dtd">
<svg version="1.0" xmlns="http://www.w3.org/2000/svg"
 width="98.000000pt" height="78.000000pt" viewBox="0 0 98.000000 78.000000"
 preserveAspectRatio="xMidYMid meet">

<g transform="translate(0.000000,78.000000) scale(0.100000,-0.100000)"
fill="#000000" stroke="none">
<path d="M381 737 c-8 -10 -11 -71 -11 -203 1 -156 -2 -195 -15 -221 -14 -28
-14 -37 -3 -60 16 -35 69 -44 99 -17 23 20 25 67 4 84 -8 7 -15 27 -15 46 l0
33 73 3 c66 3 72 5 75 26 3 21 0 22 -72 22 l-76 0 0 30 0 30 75 0 c68 0 75 2
75 20 0 18 -7 20 -75 20 l-75 0 0 30 0 29 73 3 c66 3 72 5 75 26 3 21 0 22
-72 22 l-75 0 -3 43 c-2 34 -7 43 -24 45 -11 2 -26 -3 -33 -11z"/>
<path d="M19 363 c-6 -16 -13 -49 -16 -74 l-6 -47 54 -19 c30 -11 71 -26 92
-34 l37 -13 0 -73 0 -73 222 2 222 3 69 85 c121 148 143 170 174 170 16 0 34
-5 39 -10 7 -7 16 -5 27 8 16 17 16 20 -7 41 l-24 23 -143 -43 c-79 -23 -161
-47 -182 -53 -26 -7 -39 -17 -44 -34 -3 -12 -3 -25 -1 -27 3 -3 51 11 108 30
57 19 105 34 106 32 1 -1 -32 -41 -74 -89 l-77 -88 -182 0 -183 0 0 75 c0 68
2 75 20 75 15 0 20 7 20 25 0 18 -5 25 -19 25 -13 0 -21 8 -23 22 -2 18 -20
29 -88 55 -47 17 -91 32 -98 32 -7 1 -17 -11 -23 -26z m118 -60 c37 -13 43
-19 43 -43 l0 -28 -62 22 c-35 13 -63 28 -62 34 1 7 2 19 3 28 1 11 6 14 19 9
9 -4 36 -14 59 -22z"/>
<path d="M900 198 c0 -12 -5 -36 -12 -54 -13 -38 1 -64 34 -64 27 0 33 25 18
86 -13 54 -40 76 -40 32z"/>
</g>
</svg>
