<?xml version="1.0" standalone="no"?>
<!DOCTYPE svg PUBLIC "-//W3C//DTD SVG 20010904//EN"
 "http://www.w3.org/TR/2001/REC-SVG-20010904/DTD/svg10.dtd">
<svg version="1.0" xmlns="http://www.w3.org/2000/svg"
 width="512.000000pt" height="512.000000pt" viewBox="0 0 512.000000 512.000000"
 preserveAspectRatio="xMidYMid meet">

<g transform="translate(0.000000,512.000000) scale(0.100000,-0.100000)"
fill="#000000" stroke="none">
<path d="M84 4021 c-97 -59 -111 -188 -27 -261 19 -17 237 -132 484 -256 414
-206 454 -224 502 -224 141 0 213 153 125 265 -14 18 -177 105 -490 261 -413
206 -474 234 -516 234 -28 0 -59 -8 -78 -19z"/>
<path d="M4442 3806 c-313 -156 -476 -243 -490 -261 -47 -60 -51 -128 -12
-193 29 -47 75 -72 137 -72 48 0 88 18 502 224 247 124 465 239 484 256 64 56
74 148 22 215 -34 45 -73 65 -129 65 -39 0 -110 -32 -514 -234z"/>
<path d="M1579 3521 c-249 -80 -369 -391 -369 -961 0 -577 123 -889 379 -964
165 -48 357 17 531 181 342 322 435 828 230 1252 -59 122 -132 222 -230 314
-178 167 -374 231 -541 178z m207 -335 c62 -29 167 -129 216 -207 169 -266
169 -572 0 -838 -77 -122 -218 -231 -299 -231 -60 0 -108 94 -140 277 -24 140
-24 606 0 746 21 119 47 198 82 243 32 42 67 44 141 10z"/>
<path d="M3301 3524 c-95 -25 -207 -93 -301 -181 -342 -322 -435 -828 -230
-1252 144 -298 415 -511 650 -511 326 0 490 329 490 980 0 577 -123 889 -379
964 -67 20 -158 20 -230 0z m174 -348 c73 -95 99 -259 99 -616 0 -215 -4 -297
-17 -373 -32 -183 -80 -277 -140 -277 -52 0 -131 44 -199 112 -302 297 -302
779 0 1076 68 68 147 112 199 112 25 0 38 -8 58 -34z"/>
<path d="M80 2698 c-57 -39 -75 -72 -75 -138 0 -66 18 -99 75 -137 33 -23 34
-23 448 -23 403 0 415 1 452 21 105 59 105 219 0 278 -37 20 -49 21 -452 21
-414 0 -415 0 -448 -22z"/>
<path d="M4139 2698 c-104 -60 -103 -218 1 -277 37 -20 49 -21 452 -21 414 0
415 0 448 23 57 38 75 71 75 137 0 66 -18 99 -75 138 -33 22 -34 22 -449 22
-405 0 -417 -1 -452 -22z"/>
<path d="M541 1616 c-247 -124 -465 -239 -484 -256 -114 -100 -41 -280 112
-280 32 0 132 46 509 234 313 156 476 243 490 261 47 60 51 128 12 193 -29 47
-75 72 -137 72 -48 0 -88 -18 -502 -224z"/>
<path d="M3992 1820 c-85 -52 -104 -165 -40 -245 14 -18 177 -105 490 -261
499 -249 506 -252 582 -220 18 8 46 30 61 50 52 68 43 159 -22 216 -19 17
-237 132 -484 256 -414 206 -454 224 -502 224 -34 0 -63 -7 -85 -20z"/>
</g>
</svg>
