<?xml version="1.0" standalone="no"?>
<!DOCTYPE svg PUBLIC "-//W3C//DTD SVG 20010904//EN"
 "http://www.w3.org/TR/2001/REC-SVG-20010904/DTD/svg10.dtd">
<svg version="1.0" xmlns="http://www.w3.org/2000/svg"
 width="512.000000pt" height="512.000000pt" viewBox="0 0 512.000000 512.000000"
 preserveAspectRatio="xMidYMid meet">

<g transform="translate(0.000000,512.000000) scale(0.100000,-0.100000)"
fill="#707070" stroke="none">
<path d="M607 4159 c-21 -11 -47 -34 -57 -52 -19 -31 -20 -55 -20 -734 l0
-703 -214 0 c-205 0 -214 -1 -247 -23 -67 -44 -88 -135 -47 -197 50 -73 56
-75 294 -78 l214 -3 0 -57 c0 -67 23 -112 72 -142 29 -18 51 -20 186 -20 83 0
152 -3 152 -6 0 -4 -41 -79 -92 -167 -81 -142 -92 -167 -92 -209 0 -141 182
-200 266 -87 14 19 76 124 138 234 62 110 120 208 128 218 14 16 97 17 1541
15 l1526 -3 130 -226 c72 -125 139 -237 150 -249 91 -100 255 -36 255 99 0 41
-12 69 -90 205 -49 88 -90 163 -90 167 0 5 69 9 154 9 142 0 155 2 187 23 73
49 69 -12 69 991 l0 898 -22 39 c-14 25 -37 46 -63 59 -41 20 -61 20 -2216 20
-2155 -1 -2174 -1 -2212 -21z m4213 -994 l0 -715 -1995 0 -1995 0 0 715 0 715
1995 0 1995 0 0 -715z"/>
<path d="M1670 1989 c-207 -21 -383 -171 -444 -379 -26 -86 -22 -224 7 -308
131 -377 608 -483 877 -195 179 191 197 466 45 672 -114 154 -288 230 -485
210z m156 -318 c53 -24 109 -91 124 -148 52 -209 -197 -365 -360 -226 -55 48
-80 99 -80 168 0 95 45 169 125 206 52 24 138 24 191 0z"/>
<path d="M3855 1989 c-257 -25 -465 -255 -465 -516 0 -281 212 -509 495 -530
89 -7 216 23 294 70 288 170 349 564 125 807 -122 131 -270 187 -449 169z
m183 -331 c109 -72 133 -231 51 -331 -90 -109 -257 -110 -347 -2 -90 110 -56
280 70 344 63 32 168 27 226 -11z"/>
</g>
</svg>
